<svg xmlns="http://www.w3.org/2000/svg" version="1.0" width="24.000000pt" height="24.000000pt" viewBox="0 0 24.000000 24.000000" preserveAspectRatio="xMidYMid meet">

<g transform="translate(0.000000,24.000000) scale(0.100000,-0.100000)" fill="#cb7318" stroke="none">
<path d="M16 224 c-12 -12 -16 -37 -16 -104 0 -114 5 -120 108 -120 l77 0 -3 107 c-2 86 -6 111 -19 121 -25 18 -128 16 -147 -4z m92 -51 c2 -9 -8 -13 -32 -13 -26 0 -36 4 -36 16 0 19 61 16 68 -3z m42 -53 c0 -5 -25 -10 -55 -10 -30 0 -55 5 -55 10 0 6 25 10 55 10 30 0 55 -4 55 -10z m-2 -52 c-3 -8 -26 -14 -56 -16 -42 -2 -52 0 -52 12 0 13 12 16 56 16 40 0 55 -4 52 -12z" fill="#cb7318"/>
<path d="M210 86 c0 -44 3 -56 16 -56 12 0 14 10 12 52 -4 74 -28 77 -28 4z" fill="#cb7318"/>
</g>
</svg>