<?xml version="1.0" encoding="UTF-8"?>
<svg version="1.1" xmlns="http://www.w3.org/2000/svg" width="24" height="24">
<path d="M0 0 C0.79792969 0.00386719 1.59585937 0.00773437 2.41796875 0.01171875 C3.21589844 0.00785156 4.01382812 0.00398438 4.8359375 0 C10.79136108 0.01011108 10.79136108 0.01011108 11.91796875 1.13671875 C12.06281724 2.67312072 12.14500816 4.2155501 12.19921875 5.7578125 C12.23660156 6.69302734 12.27398438 7.62824219 12.3125 8.59179688 C12.36470703 10.0680957 12.36470703 10.0680957 12.41796875 11.57421875 C12.48671492 13.51056923 12.5594375 15.44678388 12.63671875 17.3828125 C12.66701172 18.24575928 12.69730469 19.10870605 12.72851562 19.99780273 C12.79080019 22.1878443 12.79080019 22.1878443 13.91796875 24.13671875 C10.60548688 24.16560021 7.29303708 24.18347674 3.98046875 24.19921875 C3.03494141 24.20759766 2.08941406 24.21597656 1.11523438 24.22460938 C-0.23344727 24.22944336 -0.23344727 24.22944336 -1.609375 24.234375 C-2.85835571 24.24223022 -2.85835571 24.24223022 -4.13256836 24.25024414 C-6.08203125 24.13671875 -6.08203125 24.13671875 -7.08203125 23.13671875 C-7.18119695 21.51414331 -7.21282902 19.88732044 -7.21484375 18.26171875 C-7.21613281 17.276875 -7.21742188 16.29203125 -7.21875 15.27734375 C-7.21488281 14.2409375 -7.21101562 13.20453125 -7.20703125 12.13671875 C-7.21283203 10.58210937 -7.21283203 10.58210937 -7.21875 8.99609375 C-7.21746094 8.01125 -7.21617187 7.02640625 -7.21484375 6.01171875 C-7.21371582 5.10164062 -7.21258789 4.1915625 -7.21142578 3.25390625 C-6.93772943 -1.22438571 -3.76367706 0.00638994 0 0 Z M-2.08203125 6.13671875 C-2.08203125 6.46671875 -2.08203125 6.79671875 -2.08203125 7.13671875 C-0.43203125 7.13671875 1.21796875 7.13671875 2.91796875 7.13671875 C2.91796875 6.80671875 2.91796875 6.47671875 2.91796875 6.13671875 C1.26796875 6.13671875 -0.38203125 6.13671875 -2.08203125 6.13671875 Z M-2.08203125 11.13671875 C-2.08203125 11.79671875 -2.08203125 12.45671875 -2.08203125 13.13671875 C0.55796875 13.13671875 3.19796875 13.13671875 5.91796875 13.13671875 C5.91796875 12.47671875 5.91796875 11.81671875 5.91796875 11.13671875 C3.27796875 11.13671875 0.63796875 11.13671875 -2.08203125 11.13671875 Z M-2.08203125 17.13671875 C-2.08203125 17.46671875 -2.08203125 17.79671875 -2.08203125 18.13671875 C0.88796875 18.13671875 3.85796875 18.13671875 6.91796875 18.13671875 C6.91796875 17.80671875 6.91796875 17.47671875 6.91796875 17.13671875 C3.94796875 17.13671875 0.97796875 17.13671875 -2.08203125 17.13671875 Z " fill="#CA7217" transform="translate(7.08203125,-0.13671875)"/>
<path d="M0 0 C1.32 0 2.64 0 4 0 C4 4.29 4 8.58 4 13 C2.68 13 1.36 13 0 13 C0 8.71 0 4.42 0 0 Z " fill="#CA7218" transform="translate(20,9)"/>
</svg>
