<svg xmlns="http://www.w3.org/2000/svg" version="1.0" width="24.000000pt" height="21.000000pt" viewBox="0 0 24.000000 21.000000" preserveAspectRatio="xMidYMid meet">

<g transform="translate(0.000000,21.000000) scale(0.100000,-0.100000)" fill="#cb7318" stroke="none">
<path d="M10 181 c-13 -25 -13 -127 0 -152 10 -17 22 -19 110 -19 116 0 120 3 120 95 0 92 -4 95 -120 95 -88 0 -100 -2 -110 -19z m80 -43 l30 -22 30 22 c30 23 60 29 60 12 0 -12 -71 -60 -89 -60 -18 0 -91 49 -91 61 0 16 30 9 60 -13z" fill="#cb7318"/>
</g>
</svg>