<?xml version="1.0" encoding="UTF-8"?>
<svg version="1.1" xmlns="http://www.w3.org/2000/svg" width="24" height="21">
<path d="M0 0 C1.3303125 -0.00193359 1.3303125 -0.00193359 2.6875 -0.00390625 C3.615625 -0.00003906 4.54375 0.00382812 5.5 0.0078125 C6.8921875 0.00201172 6.8921875 0.00201172 8.3125 -0.00390625 C9.199375 -0.00261719 10.08625 -0.00132813 11 0 C11.8146875 0.00112793 12.629375 0.00225586 13.46875 0.00341797 C15.5 0.1328125 15.5 0.1328125 17.5 1.1328125 C17.52888514 4.27862673 17.54675923 7.42440719 17.5625 10.5703125 C17.57087891 11.46814453 17.57925781 12.36597656 17.58789062 13.29101562 C17.59272461 14.57202148 17.59272461 14.57202148 17.59765625 15.87890625 C17.60551147 17.06504517 17.60551147 17.06504517 17.61352539 18.27514648 C17.5 20.1328125 17.5 20.1328125 16.5 21.1328125 C14.87742456 21.2319782 13.25060169 21.26361027 11.625 21.265625 C10.64015625 21.26691406 9.6553125 21.26820312 8.640625 21.26953125 C7.60421875 21.26566406 6.5678125 21.26179688 5.5 21.2578125 C3.94539062 21.26361328 3.94539062 21.26361328 2.359375 21.26953125 C1.37453125 21.26824219 0.3896875 21.26695313 -0.625 21.265625 C-1.53507813 21.26449707 -2.44515625 21.26336914 -3.3828125 21.26220703 C-5.5 21.1328125 -5.5 21.1328125 -6.5 20.1328125 C-6.58651611 18.71711127 -6.60704904 17.2972175 -6.59765625 15.87890625 C-6.59443359 15.02490234 -6.59121094 14.17089844 -6.58789062 13.29101562 C-6.57951172 12.39318359 -6.57113281 11.49535156 -6.5625 10.5703125 C-6.55798828 9.66861328 -6.55347656 8.76691406 -6.54882812 7.83789062 C-6.53700225 5.60279936 -6.5205222 3.36783813 -6.5 1.1328125 C-4.12384014 -0.05526743 -2.6488258 0.00366728 0 0 Z M-0.5 7.1328125 C-0.17 7.7928125 0.16 8.4528125 0.5 9.1328125 C1.16 8.8028125 1.82 8.4728125 2.5 8.1328125 C1.51 7.8028125 0.52 7.4728125 -0.5 7.1328125 Z M9.5 7.1328125 C9.17 7.7928125 8.84 8.4528125 8.5 9.1328125 C9.49 8.8028125 10.48 8.4728125 11.5 8.1328125 C10.84 7.8028125 10.18 7.4728125 9.5 7.1328125 Z M3.5 10.1328125 C7.5 11.1328125 7.5 11.1328125 7.5 11.1328125 Z " fill="#CA7217" transform="translate(6.5,-0.1328125)"/>
</svg>
