<svg xmlns="http://www.w3.org/2000/svg" version="1.0" width="24.000000pt" height="24.000000pt" viewBox="0 0 24.000000 24.000000" preserveAspectRatio="xMidYMid meet">

<g transform="translate(0.000000,24.000000) scale(0.100000,-0.100000)" fill="#cb7318" stroke="none">
<path d="M25 216 c-20 -20 -23 -29 -16 -54 19 -63 71 -120 134 -147 35 -15 41 -15 63 0 31 20 31 48 -1 65 -21 11 -27 11 -43 -3 -26 -23 -34 -22 -70 16 -37 38 -38 44 -16 68 14 16 14 20 -1 48 -8 17 -18 31 -21 31 -3 0 -16 -11 -29 -24z" fill="#cb7318"/>
<path d="M156 223 c26 -5 60 -40 67 -68 4 -18 5 -17 6 3 1 30 -42 72 -71 71 -22 -2 -22 -2 -2 -6z" fill="#cb7318"/>
<path d="M158 180 c12 -5 22 -17 23 -27 0 -11 3 -13 6 -5 7 17 -15 42 -36 41 -11 0 -9 -3 7 -9z" fill="#cb7318"/>
</g>
</svg>