<?xml version="1.0" encoding="UTF-8"?>
<svg version="1.1" xmlns="http://www.w3.org/2000/svg" width="24" height="24">
<path d="M0 0 C2.4375 -0.4375 2.4375 -0.4375 5 0 C6.875 1.6875 6.875 1.6875 8 4 C7.6875 6.75 7.6875 6.75 7 9 C6.34 9 5.68 9 5 9 C8.02736973 14.10613191 8.02736973 14.10613191 13 17 C13.33 16.01 13.66 15.02 14 14 C17.37462715 14.54723683 19.08235 15.0549 22 17 C22.3125 19.5 22.3125 19.5 22 22 C20 24 20 24 16.4375 24.5 C10.89195485 24.33867505 7.03871904 21.61641952 3 18 C-0.28556933 14.21777484 -1.86335249 11.19078543 -2.4375 6.1875 C-2 3 -2 3 0 0 Z " fill="#CB7217" transform="translate(2,0)"/>
<path d="M0 0 C4.12796115 0.2381516 6.34632633 0.39660892 9.4375 3.25 C11.10291199 6.1811251 11.37775893 7.6946094 11 11 C10.01 10.67 9.02 10.34 8 10 C7.54625 9.030625 7.0925 8.06125 6.625 7.0625 C5.27857493 3.81873754 5.27857493 3.81873754 2.3125 2.625 C1.549375 2.41875 0.78625 2.2125 0 2 C0 1.34 0 0.68 0 0 Z " fill="#CA7218" transform="translate(13,0)"/>
<path d="M0 0 C2.97 0.495 2.97 0.495 6 1 C6.33 2.98 6.66 4.96 7 7 C3.63983107 5.87994369 2.30935087 4.62788203 0 2 C0 1.34 0 0.68 0 0 Z " fill="#CA7217" transform="translate(13,4)"/>
</svg>
