<svg xmlns="http://www.w3.org/2000/svg" version="1.0" width="32.000000pt" height="32.000000pt" viewBox="0 0 32.000000 32.000000" preserveAspectRatio="xMidYMid meet">

<g transform="translate(0.000000,32.000000) scale(0.100000,-0.100000)" fill="#cb7318" stroke="none">
<path d="M101 272 c-38 -20 -71 -73 -71 -112 0 -62 68 -130 130 -130 39 0 92 33 112 71 23 43 23 75 0 118 -20 38 -73 71 -112 71 -14 0 -41 -8 -59 -18z m87 -51 c18 -11 11 -61 -10 -75 -25 -15 -52 4 -56 39 -4 28 10 45 38 45 8 0 21 -4 28 -9z m33 -120 c20 -16 21 -21 10 -35 -21 -25 -78 -31 -117 -12 -40 18 -42 29 -12 50 31 22 91 20 119 -3z" fill="#cb7318"/>
</g>
</svg>