<?xml version="1.0" encoding="UTF-8"?>
<svg version="1.1" xmlns="http://www.w3.org/2000/svg" width="32" height="32">
<path d="M0 0 C3.27593689 2.5452745 5.32676302 4.93301158 6.15625 8.98828125 C6.29617873 13.70213031 5.8558839 17.62940702 2.90625 21.42578125 C-0.4146601 24.52026566 -2.37273805 25.91493025 -6.94921875 26.05078125 C-12.83256183 25.73542618 -15.83183236 24.29375384 -19.84375 19.98828125 C-22.28732377 16.16355708 -22.0671983 12.56923986 -21.44921875 8.20703125 C-20.21983073 3.70191903 -17.51674716 1.05714055 -13.59375 -1.44921875 C-8.91871806 -2.40547528 -4.26301752 -2.33924055 0 0 Z M-9.84375 5.98828125 C-10.50375 7.30828125 -11.16375 8.62828125 -11.84375 9.98828125 C-10.85375 11.47328125 -10.85375 11.47328125 -9.84375 12.98828125 C-8.19375 12.65828125 -6.54375 12.32828125 -4.84375 11.98828125 C-4.51375 10.99828125 -4.18375 10.00828125 -3.84375 8.98828125 C-4.50375 7.99828125 -5.16375 7.00828125 -5.84375 5.98828125 C-7.16375 5.98828125 -8.48375 5.98828125 -9.84375 5.98828125 Z M-14.84375 18.98828125 C-14.84375 19.64828125 -14.84375 20.30828125 -14.84375 20.98828125 C-11.43169404 23.08800799 -8.8137253 23.31911252 -4.84375 22.98828125 C-2.54144234 22.08997109 -2.54144234 22.08997109 -0.84375 20.98828125 C-1.17375 19.99828125 -1.50375 19.00828125 -1.84375 17.98828125 C-6.3249069 15.7477028 -10.87845035 16.34474815 -14.84375 18.98828125 Z " fill="#CA7217" transform="translate(23.84375,4.01171875)"/>
</svg>
